<?xml version="1.0" encoding="UTF-8"?>
<svg id="_圖層_1" data-name="圖層 1" xmlns="http://www.w3.org/2000/svg" version="1.1" viewBox="0 0 1417.32 1417.32">
  <defs>
    <style>
      .cls-1 {
        fill: #a23181;
      }

      .cls-1, .cls-2, .cls-3, .cls-4, .cls-5, .cls-6 {
        stroke-width: 0px;
      }

      .cls-7 {
        stroke: #231916;
      }

      .cls-7, .cls-8, .cls-9 {
        fill: none;
        stroke-miterlimit: 10;
      }

      .cls-2 {
        fill: #38193f;
      }

      .cls-3 {
        fill: #673987;
      }

      .cls-4 {
        fill: #7ec0c0;
      }

      .cls-5 {
        fill: #fff;
      }

      .cls-6 {
        fill: #eecc5c;
      }

      .cls-8 {
        stroke-width: 1.24px;
      }

      .cls-8, .cls-9 {
        stroke: #d41a1c;
      }

      .cls-9 {
        stroke-width: .9px;
      }
    </style>
  </defs>
  <path class="cls-3" d="M664.81,961.55v18.42c0,1.84-1.48,3.32-3.32,3.32h-79.23c-1.82,0-3.31-1.48-3.31-3.32v-125.8c0-1.82,1.48-3.31,3.31-3.31h6.59c.44,0,.89.01,1.32.05,7.53.48,13.95,5.12,16.95,11.65.33.69.61,1.4.84,2.13.4,1.22.76,2.2.85,3.79v89.75h52.67c1.84,0,3.32,1.48,3.32,3.32Z"/>
  <path class="cls-5" d="M643.19,942.75c0,19.84,11.73,36.94,28.63,44.75,1.69.78,3.44,1.47,5.23,2.06,4.85,1.6,10.03,2.46,15.41,2.46v-50.07h-49.26v.16c0,.21,0,.43,0,.64Z"/>
  <path class="cls-3" d="M756.28,896.37c-.25-.72-.53-1.44-.84-2.13-2.99-6.48-9.32-11.08-16.77-11.63h-8.1c-1.84,0-3.32,1.48-3.32,3.32v4.65c-7.14-6.09-16.61-9.46-27.06-9.46-26.25,0-45.31,21.22-45.31,50.45s18.98,51.12,45.14,51.12c10.43,0,20.09-3.51,27.22-9.66v4.85c0,1.82,1.48,3.31,3.32,3.31h23.4c1.84,0,3.32-1.48,3.32-3.31v-75.22c0-2.2-.35-4.31-1.01-6.3ZM706.17,955.65c-14.23,0-22.25-9.69-22.25-24.07s7.63-23.41,22.25-23.41,21.08,12.31,21.08,23.74-6.59,23.74-21.08,23.74Z"/>
  <path class="cls-2" d="M384.28,560.25v-.18c-.02-.19-.03-.38-.04-.56-.04-.55-.09-1.1-.16-1.64-.03-.23-.06-.46-.09-.68-.07-.5-.15-1-.25-1.5-.08-.45-.18-.89-.29-1.33-.02-.07-.04-.14-.05-.22-.11-.44-.23-.88-.36-1.31-.07-.23-.14-.46-.22-.69-.07-.23-.15-.46-.22-.69,0-.01-.01-.03-.02-.04-.01-.03-.02-.05-.02-.07-.1-.28-.21-.56-.32-.84-.06-.18-.13-.35-.2-.52-.15-.37-.31-.75-.47-1.11-.02-.04-.04-.09-.06-.13-.19-.42-.39-.83-.6-1.24-.04-.07-.08-.15-.12-.22-.19-.37-.39-.74-.6-1.1-.03-.05-.06-.1-.09-.15-.02-.03-.04-.07-.06-.1-.18-.31-.37-.62-.56-.92-.03-.05-.06-.09-.09-.14-.26-.4-.52-.79-.8-1.18-.23-.33-.46-.65-.71-.96-.09-.13-.19-.25-.29-.38-.28-.35-.57-.7-.86-1.05,0,0-.01,0-.01,0-.32-.36-.64-.72-.98-1.07-.07-.08-.15-.16-.23-.24-.19-.19-.38-.38-.57-.57-.07-.07-.15-.15-.22-.22-.02-.02-.03-.03-.05-.05-.33-.31-.66-.61-1-.92-.04-.02-.07-.05-.11-.09-.34-.29-.68-.58-1.03-.85-.19-.15-.38-.3-.57-.44-.14-.11-.28-.21-.42-.32-.06-.04-.11-.08-.17-.12-.26-.18-.52-.37-.78-.54-.24-.16-.48-.32-.72-.47-.34-.22-.69-.43-1.04-.63-.35-.2-.7-.4-1.06-.59-1.42-.76-2.91-1.4-4.44-1.93-.38-.13-.76-.26-1.15-.37-.28-.09-.57-.17-.85-.24-.19-.06-.38-.11-.58-.16-.06-.01-.12-.03-.18-.04-.38-.1-.78-.19-1.17-.26-.04,0-.07-.02-.11-.03-.07-.01-.13-.03-.2-.04-.3-.06-.6-.11-.91-.15-.09-.02-.17-.04-.26-.05l-.21-.03c-.45-.07-.9-.12-1.35-.17-.08-.01-.16-.02-.23-.02-.45-.04-.9-.08-1.35-.1h-.04c-.12-.01-.24,0-.35-.01-5.64-.27-10.92,1.03-15.52,3.46-.03.01-.06.02-.09.04-.21.11-.42.23-.63.35-.24.14-.49.26-.73.4-.02.02-.04.03-.06.04-.34.2-.68.41-1.02.64-.06.05-.12.09-.18.12,0,0-.01,0-.01.01-6.27,4.19-10.95,10.6-13,17.86-.04.09-.06.18-.07.27-.09.31-.17.62-.24.93-1.25,5.16-1.15,10.71.6,16.19.15.51.32,1.01.5,1.51.02.03.03.07.04.1.83,2.14,1.82,4.09,2.93,5.88.2.31.4.62.61.92.11.17.22.34.35.5,4.09,5.86,9.67,9.65,15.72,11.51.24.08.49.16.75.23,8.69,2.46,18.28,1.03,25.89-3.8.27-.18.54-.36.8-.54,5.16-3.5,9.32-8.62,11.53-15.19.07-.18.13-.37.18-.55,1-3.16,1.56-6.66,1.57-10.46v-.11c-.01-.21-.02-.42-.03-.63ZM358.26,567.11c-2.72,14.79-17.46,21.24-25.93,8.48-2.03-3.49-3.27-7.45-3.61-11.47-.54-5.79.88-11.78,3.71-16.5,2.63-4.03,7.12-7.13,11.92-6.74,3.47.19,6.66,2.09,8.91,4.68,5.04,5.74,6.44,14.21,5,21.55Z"/>
  <path class="cls-5" d="M358.26,567.11c-2.72,14.79-17.46,21.24-25.93,8.48-2.03-3.49-3.27-7.45-3.61-11.47-.54-5.79.88-11.78,3.71-16.5,2.63-4.03,7.12-7.13,11.92-6.74,3.47.19,6.66,2.09,8.91,4.68,5.04,5.74,6.44,14.21,5,21.55Z"/>
  <line class="cls-7" x1="293.46" y1="689.72" x2="293.46" y2="689.47"/>
  <path class="cls-9" d="M293.53,689.72h-.07v-.25h.06c0,.09,0,.17.01.25Z"/>
  <path class="cls-1" d="M529.97,814.69v104.55c-.53.01-1.06.01-1.59.01-24.8,0-48.7-3.84-71.14-10.97-93.33-29.62-161.41-115.97-163.71-218.56-.01-.08-.01-.16-.01-.25.63,0,1.26-.01,1.89-.02,46.77-.73,87.07-28.03,106.29-67.53.95-1.97,1.86-3.98,2.71-6.01.89-2.13,1.73-4.3,2.5-6.49.53-1.51,1.03-3.03,1.5-4.57.23-.78.47-1.56.69-2.35,2.97-10.45,4.56-21.48,4.56-32.9,0-27.26-9.07-52.4-24.38-72.56-.33-.43-.66-.87-1-1.29-.81-1.05-1.64-2.08-2.49-3.1-.33-.4-.67-.8-1.01-1.2-2.13-2.49-4.37-4.89-6.7-7.2-.91-.83-1.81-1.69-2.69-2.58-17.74-16.55-40.49-27.77-65.72-31.17-5.3-.72-10.71-1.09-16.21-1.09h112.86l79.53-74.29c13.78,14.75,20.63,33.49,20.67,52.21.01,7.93-1.19,15.84-3.6,23.45-.09.29-.19.57-.28.86,8.47-.99,17.08-1.54,25.8-1.6-2.95,32.38-25.63,60.99-58.85,69.91-2.09.56-4.19,1.03-6.28,1.42,33.02,34.03,55.83,78.12,63.48,127.13-.65,0-44.48,0-44.48,0v172.97c1.21,0,2.42-.01,3.62-.04,12.1-.25,23.89-1.77,35.23-4.43,2.97-.69,5.91-1.46,8.81-2.31Z"/>
  <path class="cls-1" d="M529.97,919.24v.63c-25.38-.03-49.83-4.09-72.73-11.59,22.44,7.13,46.34,10.97,71.14,10.97.53,0,1.06,0,1.59-.01Z"/>
  <path class="cls-3" d="M293.46,610.71v78.76c-43.27,0-78.35-35.08-78.35-78.35,0-.14,0-.27.01-.41h78.34Z"/>
  <path class="cls-6" d="M293.46,449.41v161.3h-158.69c-.01-.86-.02-1.72-.02-2.58,0-78.35,56.76-143.44,131.4-156.38,8.87-1.54,18-2.34,27.31-2.34Z"/>
  <path class="cls-8" d="M293.53,689.72h-.07v-.25h.06c0,.09,0,.17.01.25Z"/>
  <path class="cls-5" d="M389.28,497.04c-.33-.43-.66-.87-1-1.29-.81-1.05-1.64-2.08-2.49-3.1-.33-.4-.67-.8-1.01-1.2-2.13-2.49-4.37-4.89-6.7-7.2-.91-.83-1.81-1.69-2.69-2.58-17.74-16.55-40.49-27.77-65.72-31.17-5.3-.72-10.71-1.09-16.21-1.09v240.06h.06c.63,0,1.26-.01,1.89-.02,46.77-.73,87.07-28.03,106.29-67.53.95-1.97,1.86-3.98,2.71-6.01.89-2.13,1.73-4.3,2.5-6.49.53-1.51,1.03-3.03,1.5-4.57.23-.78.47-1.56.69-2.35,2.97-10.45,4.56-21.48,4.56-32.9,0-27.26-9.07-52.4-24.38-72.56ZM384.28,563.11c-.13,2.9-.66,5.7-1.54,8.34-.05.18-.11.37-.18.55-2.17,6.19-6.25,11.49-11.53,15.19-.26.18-.53.36-.8.54-.54.35-1.1.69-1.66,1.01-4.54,2.59-9.79,4.07-15.39,4.07-3.07,0-6.04-.44-8.84-1.28-.26-.07-.51-.15-.75-.23-6.4-2.07-11.89-6.16-15.72-11.51-.13-.16-.24-.33-.35-.5-.22-.3-.42-.61-.61-.92-1.18-1.84-2.16-3.81-2.93-5.88-.01-.03-.02-.07-.04-.1-.19-.5-.34-1.01-.5-1.51-.1-.32-.2-.63-.29-.96h0c-.12-.46-.24-.92-.34-1.39-.1-.42-.19-.85-.26-1.28-.09-.46-.16-.91-.22-1.37s-.11-.92-.15-1.38c-.04-.37-.06-.74-.08-1.11-.01-.18-.02-.37-.03-.56-.01-.38-.02-.77-.02-1.15,0-2.4.27-4.74.79-6.99.07-.31.15-.62.24-.93.01-.09.03-.18.07-.27,1.2-4.47,3.39-8.54,6.31-11.98.32-.38.66-.75,1.01-1.12.22-.25.46-.49.7-.72.15-.16.31-.32.47-.47.36-.35.74-.69,1.12-1.02.2-.17.4-.34.6-.5.23-.2.46-.39.7-.56.17-.15.33-.27.5-.39.21-.16.43-.32.65-.47.31-.23.62-.44.94-.63,0-.01.01-.01.01-.01.06-.06.12-.1.18-.12.34-.23.68-.44,1.02-.64.02,0,.04-.02.06-.04.12-.07.24-.14.37-.2.12-.07.24-.13.36-.2.24-.13.48-.27.72-.39.23-.12.47-.25.72-.36.21-.11.42-.21.64-.31.23-.11.46-.21.7-.31.23-.1.47-.2.7-.29.47-.19.95-.37,1.44-.54.72-.25,1.45-.47,2.2-.67.51-.13,1.02-.25,1.54-.35.26-.06.51-.11.77-.15.5-.1,1.01-.17,1.52-.24.34-.05.69-.09,1.04-.12.19-.02.38-.03.58-.05.31-.03.62-.05.93-.06.16-.01.33-.02.49-.02.35-.01.69-.02,1.04-.02h.06c.38,0,.76.01,1.15.03.58.03,1.16.05,1.74.11.07,0,.15.01.23.02.45.05.9.1,1.35.17l.21.03c.09.01.17.03.26.05.31.04.61.09.91.15.07,0,.13.03.2.04.04.01.07.02.11.03.39.07.79.16,1.17.26.06.01.12.03.18.04.2.05.39.1.58.16.21.05.42.11.63.17.07.02.15.04.22.07.09.02.17.04.26.07.3.09.59.19.89.3.09.02.19.06.28.09.46.16.92.34,1.38.53.45.18.9.38,1.35.59.44.2.88.42,1.31.65.04.02.08.04.12.07.36.18.71.38,1.06.59.03.01.07.03.1.05.32.18.63.38.94.58.1.06.2.12.3.19.14.09.28.18.42.28.26.17.52.36.78.54.06.04.11.08.17.12.14.11.28.21.42.32.19.14.38.29.57.44.35.27.69.56,1.03.85.04.04.07.07.11.09.34.31.67.61,1,.92.02.02.03.03.05.05.07.07.15.15.22.22.19.19.38.38.57.57l.21.21s.01.02.02.03c.34.35.66.71.98,1.07,0,0,.01,0,.01,0,.29.35.58.7.86,1.05.1.13.2.25.29.38.24.3.46.61.69.92.01.01.02.03.02.04.21.28.4.55.58.84.08.11.15.23.22.34.03.05.06.09.09.14.2.31.38.61.56.92.02.03.04.07.06.1.03.05.06.1.09.15.21.36.41.73.6,1.1.04.07.08.15.12.22.18.35.36.71.53,1.08.02.06.04.11.07.16.02.04.04.09.06.13.16.36.32.74.47,1.11.07.17.14.34.2.52.11.28.22.56.32.84,0,.02.01.04.02.07.08.24.17.48.24.73.08.23.15.46.22.69.13.43.25.87.36,1.31.01.08.03.15.05.22.11.44.21.88.29,1.33.1.5.18,1,.25,1.5.03.22.06.45.09.68.01.07.02.15.03.23.06.45.1.91.13,1.37v.04c.02.18.03.37.04.56v.18c.01.21.02.42.03.63v.11c.01.23.01.46.01.69,0,.48-.01.96-.04,1.43Z"/>
  <path class="cls-6" d="M652.13,651.64c0,77.25-51.57,142.45-122.16,163.05-2.9.85-5.84,1.62-8.81,2.31-11.34,2.66-23.13,4.18-35.23,4.43-1.2.03-2.41.04-3.62.04v-22.44c6.24,0,12.39-.39,18.43-1.14,10.09-1.25,19.87-3.53,29.23-6.71,58.21-19.83,100.09-74.97,100.09-139.9,0-.8-.01-1.6-.02-2.4h22.07c.01.92.02,1.84.02,2.76Z"/>
  <path class="cls-6" d="M529.97,919.87v66.72c-46.01,0-83.44-36.75-84.53-82.51,26.22,10.17,54.73,15.75,84.53,15.79Z"/>
  <path class="cls-4" d="M630.06,651.28c0,64.93-41.88,120.07-100.09,139.9-9.36,3.18-19.14,5.46-29.23,6.71-6.04.75-12.19,1.14-18.43,1.14v-34.91c12.43,0,24.39-1.99,35.59-5.69,4.13-1.35,8.16-2.94,12.07-4.75,39.03-18.02,66.11-57.51,66.11-103.33,0-.48-.01-.98-.02-1.47h33.98c.01.8.02,1.6.02,2.4Z"/>
  <path class="cls-3" d="M596.08,650.35c0,45.82-27.08,85.31-66.11,103.33-3.91,1.81-7.94,3.4-12.07,4.75-11.2,3.7-23.16,5.69-35.59,5.69v-115.62h113.75v.38c.01.49.02.99.02,1.47Z"/>
  <path class="cls-3" d="M839.88,981.2c-1.83,0-3.31-1.48-3.31-3.31v-50.79c0-12.35-6.23-19.43-17.1-19.43s-17.43,6.9-17.43,19.43v50.79c0,1.83-1.48,3.31-3.31,3.31h-23.24c-1.83,0-3.31-1.48-3.31-3.31v-91.96c0-1.83,1.48-3.31,3.31-3.31h23.24c1.83,0,3.31,1.48,3.31,3.31v3.42c6.58-5.19,15.11-8.06,24.41-8.06,24.3,0,40,16.74,40,42.65v53.95c0,1.83-1.48,3.31-3.31,3.31h-23.24Z"/>
  <path class="cls-3" d="M980.4,896.39c-.23-.72-.51-1.44-.84-2.13-3-6.53-9.42-11.18-16.95-11.65h-7.91c-1.84,0-3.32,1.48-3.32,3.32v4.57c-7.05-5.97-16.65-9.38-27.06-9.38-26.25,0-45.31,21.22-45.31,50.45s19.05,51.12,45.31,51.12c10.31,0,19.92-3.55,27.06-9.77v8.94c0,10.22-3.15,23.65-13.27,28.56-8.59,4.17-22.68,1.3-25.54-8.88-.4-1.44-1.71-2.42-3.19-2.42h-23.08c-.94,0-1.84.4-2.47,1.1-.63.7-.92,1.64-.82,2.57,3.68,32.66,44.45,45.47,71.05,31.29,18.18-9.69,27.34-26.89,27.34-52.21v-79.17c0-2.2-.35-4.31-1.01-6.3ZM930.29,955.65c-10.39,0-22.57-8.26-22.57-24.07s12.49-23.41,22.57-23.41c14.49,0,21.75,12.31,21.75,23.74,0,16.32-11.59,23.74-21.75,23.74Z"/>
  <path class="cls-3" d="M1041.67,982.7c-29.41,0-49.96-20.88-49.96-50.79s20.82-50.79,50.62-50.79,50.62,20.88,50.62,50.79-21.57,50.79-51.28,50.79ZM1042,908c-14.83,0-21.08,12.88-21.08,23.91,0,17.63,11.2,23.91,20.75,23.91,10.33,0,21.42-7.39,21.42-23.91,0-17.65-11.66-23.91-21.09-23.91Z"/>
</svg>